<?xml version="1.0" standalone="no"?>
<!DOCTYPE svg PUBLIC "-//W3C//DTD SVG 20010904//EN"
 "http://www.w3.org/TR/2001/REC-SVG-20010904/DTD/svg10.dtd">
<svg version="1.0" xmlns="http://www.w3.org/2000/svg"
 width="200.000000pt" height="200.000000pt" viewBox="0 0 200.000000 200.000000"
 preserveAspectRatio="xMidYMid meet">

<g transform="translate(0.000000,200.000000) scale(0.100000,-0.100000)"
fill="#000000" stroke="none">
<path d="M921 1775 c-30 -9 -77 -28 -104 -43 -113 -61 -259 -241 -337 -415
l-35 -77 -170 0 c-186 0 -206 -5 -227 -59 -15 -38 -11 -164 6 -205 18 -43 26
-45 185 -49 l124 -2 3 -91 c6 -174 75 -326 202 -445 248 -231 622 -231 866 1
126 120 194 271 200 444 l3 91 142 5 c126 4 144 7 157 24 20 28 27 76 22 162
-3 69 -6 79 -31 100 -27 23 -33 24 -200 24 l-172 0 -35 77 c-146 326 -393 515
-599 458z m223 -80 c69 -35 154 -115 219 -206 49 -69 127 -214 127 -236 0 -10
-99 -13 -491 -13 l-491 0 7 28 c20 81 170 302 247 363 101 81 148 99 248 96
60 -2 86 -8 134 -32z m767 -494 c22 -18 24 -27 24 -114 0 -79 -3 -98 -19 -116
l-19 -21 -897 0 -897 0 -19 21 c-16 18 -19 37 -19 116 0 149 -110 133 935 133
860 0 889 -1 911 -19z m-1148 -352 c2 -65 6 -83 32 -125 19 -30 49 -60 79 -79
44 -27 58 -30 126 -30 68 0 82 3 126 30 30 19 60 49 79 79 26 42 30 60 32 125
l2 76 166 -2 c92 0 169 -4 173 -8 11 -11 6 -138 -8 -197 -32 -137 -131 -278
-253 -358 -185 -121 -449 -121 -634 0 -108 71 -193 178 -234 294 -24 69 -42
197 -34 236 6 27 10 29 58 33 29 2 105 3 170 3 l118 -1 2 -76z"/>
<path d="M103 1200 c-15 -6 -24 -21 -29 -45 -9 -50 1 -162 16 -180 11 -13 127
-15 910 -15 795 0 899 2 910 15 18 22 25 158 10 194 -6 16 -21 32 -33 35 -36
9 -1760 6 -1784 -4z m775 -113 c2 -46 0 -57 -13 -57 -12 0 -15 13 -15 61 0 81
24 77 28 -4z m272 3 c0 -47 -3 -60 -15 -60 -12 0 -15 13 -15 60 0 47 3 60 15
60 12 0 15 -13 15 -60z m40 -1 c0 -44 -3 -60 -12 -57 -13 5 -23 80 -14 104 13
34 26 10 26 -47z m-732 35 c44 -30 14 -94 -45 -94 -21 0 -23 4 -23 55 0 51 2
55 23 55 12 0 33 -7 45 -16z m283 0 c10 -13 10 -19 0 -36 -9 -15 -10 -23 -2
-31 6 -6 11 -15 11 -19 0 -14 -22 -8 -36 10 -13 16 -13 16 -14 0 0 -10 -7 -18
-15 -18 -12 0 -15 13 -15 55 0 54 1 55 29 55 16 0 34 -7 42 -16z m276 -1 c2
-6 -6 -13 -19 -15 -15 -2 -24 -11 -26 -25 -3 -19 1 -23 23 -23 17 0 25 -5 23
-12 -7 -20 -44 -21 -62 -3 -34 34 -8 100 37 93 11 -2 22 -8 24 -15z m418 7 c3
-5 -1 -10 -9 -10 -9 0 -16 5 -16 10 0 6 4 10 9 10 6 0 13 -4 16 -10z m-42 -59
c-8 -33 -12 -41 -24 -41 -5 0 -9 11 -9 24 0 30 -11 38 -30 25 -13 -8 -12 -12
4 -24 17 -13 18 -15 2 -21 -20 -8 -46 12 -46 37 0 21 32 41 53 33 8 -3 17 2
21 13 7 17 8 17 21 -1 9 -12 12 -30 8 -45z m-839 23 c19 -18 19 -20 6 -45 -6
-10 -19 -19 -28 -19 -39 0 -57 50 -24 69 23 14 28 14 46 -5z m271 2 c17 -12
18 -18 7 -40 -6 -14 -20 -26 -30 -26 -39 0 -57 50 -24 69 22 14 25 13 47 -3z
m266 4 c40 -22 11 -78 -35 -66 -31 8 -38 28 -20 55 17 24 27 26 55 11z m174
-4 c17 -12 18 -18 7 -40 -12 -28 -40 -34 -60 -14 -16 16 -15 33 4 52 19 20 25
20 49 2z m335 0 c6 -8 10 -25 8 -38 -4 -30 -46 -38 -65 -12 -17 23 -16 29 3
48 19 20 38 20 54 2z m-990 -8 c0 -9 3 -9 12 0 26 26 38 13 21 -23 -20 -43
-28 -44 -48 -5 -19 36 -19 40 0 40 8 0 15 -5 15 -12z m820 -13 c0 -14 0 -28 1
-32 0 -4 -4 -9 -10 -11 -7 -2 -11 11 -11 32 0 20 5 36 10 36 6 0 10 -11 10
-25z m45 15 c5 -8 11 -7 21 0 25 22 33 5 13 -27 -23 -37 -32 -35 -54 8 -14 25
-14 29 -1 29 8 0 18 -5 21 -10z"/>
<path d="M420 1085 c0 -17 5 -25 13 -22 6 2 12 12 12 22 0 10 -6 20 -12 23 -8
2 -13 -6 -13 -23z"/>
<path d="M700 1099 c0 -5 5 -7 10 -4 6 3 10 8 10 11 0 2 -4 4 -10 4 -5 0 -10
-5 -10 -11z"/>
<path d="M798 1053 c7 -3 16 -2 19 1 4 3 -2 6 -13 5 -11 0 -14 -3 -6 -6z"/>
<path d="M1052 1069 c2 -6 8 -10 13 -10 5 0 11 4 13 10 2 6 -4 11 -13 11 -9 0
-15 -5 -13 -11z"/>
<path d="M1238 1053 c7 -3 16 -2 19 1 4 3 -2 6 -13 5 -11 0 -14 -3 -6 -6z"/>
<path d="M1568 1053 c7 -3 16 -2 19 1 4 3 -2 6 -13 5 -11 0 -14 -3 -6 -6z"/>
</g>
</svg>
